<svg xmlns="http://www.w3.org/2000/svg" viewBox="0 0 40 52.08"><defs><style>.cls-1{fill:#09c;fill-rule:evenodd;}</style></defs><g id="Layer_2" data-name="Layer 2"><g id="Layer_1-2" data-name="Layer 1"><path class="cls-1" d="M20,44.79a12,12,0,0,1-1.7-1.72c-.11-.13-.22-.23-.34-.35a2.8,2.8,0,0,1-.32-.38c-.12-.14-.23-.21-.35-.35-.86-1-1.68-2-2.49-3.08l-2.31-3.27A51.88,51.88,0,0,1,9,29.42l-1.24-3c-.26-.7-.48-1.32-.73-2-.5-1.51-.81-2.85-1.18-4.4a26.44,26.44,0,0,1-.63-6.4c0-.49,0-.67.23-.78s.63-.22.79-.29a13.37,13.37,0,0,0,4.51-2.84c.21-.21.3-.36.5-.57a7.74,7.74,0,0,0,.88-1.22A7.77,7.77,0,0,0,13.2,4.75H26.7a7.37,7.37,0,0,0,1,3,11,11,0,0,0,5.4,4.54,8.78,8.78,0,0,0,1.48.55c.4,1.73-.14,5.3-.48,7a39.88,39.88,0,0,1-1.52,5.44,40.67,40.67,0,0,1-1.61,4L30,31.15c-.59,1.18-1.33,2.43-2,3.57l-1.67,2.51c-.59.9-2.3,3.07-3,3.93l-2,2.21c-.38.49-1.06,1-1.37,1.42ZM9.21.38A10.27,10.27,0,0,1,6.82,6.73l-.54.54a7.05,7.05,0,0,1-.61.47A8.54,8.54,0,0,1,.47,9.19,11.27,11.27,0,0,0,0,12.67c0,.31,0,.61,0,.92a35.07,35.07,0,0,0,.32,4.6,45.84,45.84,0,0,0,3,10.88C4,30.61,4.5,31.7,5.22,33.13l.34.68c.13.26.24.42.36.65.44.86.93,1.66,1.43,2.5.82,1.38,1.55,2.33,2.38,3.57.46.7,2.85,3.84,3.45,4.47L19,51.14a4.82,4.82,0,0,0,1.09.94c.18-.12.28-.25.48-.41l3.18-3.16a5.74,5.74,0,0,0,.41-.47l1.31-1.42c.14-.18.27-.27.43-.46s.26-.3.4-.48l.85-1c.48-.61,1.9-2.32,2.37-3,.67-1,1.6-2.17,2.23-3.22l1.4-2.22c.91-1.51,1.69-3.07,2.51-4.71.21-.42.35-.8.55-1.22s.35-.86.55-1.29.35-.87.5-1.28a45.63,45.63,0,0,0,1.71-5.51A35,35,0,0,0,40,12.54a11.78,11.78,0,0,0-.44-3.35,8.34,8.34,0,0,1-5.17-1.42C32,6.17,30.81,2.84,30.81,0H9.21Z"/><path class="cls-1" d="M20.36,29.9V28.32a9.06,9.06,0,0,0,5.08-1.89c.17-.14.39-.34.56-.45l1.09,1.12a5.77,5.77,0,0,1-1.31,1.07,9.59,9.59,0,0,1-1.54.87,10.18,10.18,0,0,1-3.88.86ZM14,26a4.87,4.87,0,0,1,.56.43,6.07,6.07,0,0,0,1.19.77,8.22,8.22,0,0,0,2.92,1,8.05,8.05,0,0,0,.92.1V29.9A10.45,10.45,0,0,1,15,28.67a22,22,0,0,1-2.12-1.49L14,26Zm6.35,1.48a7.66,7.66,0,0,0,2.7-.6,7.45,7.45,0,0,0,1.09-.56l1-.74c-.36-.09-.5-.32-.95-.32-1.42,0-.48.09-2.16.62a7.2,7.2,0,0,1-.86.22c-.89.17-.78-.38-.78,1.38Zm-4.83-3-.94,1a6.12,6.12,0,0,1,.5.39A8.13,8.13,0,0,0,19.6,27.5c0-1.63.1-1.28-.55-1.35a6.54,6.54,0,0,1-3.52-1.65Zm4.83.84v-.69c.57.38.6.38,1.52.38a5.48,5.48,0,0,1-1.52.31Zm-.76-1.2v1.2a6,6,0,0,1-2.73-.88c-.38-.23-.54-.46-.75-.51a.87.87,0,0,1,.69-.51c.66,0,.47-.12.93.15a4.77,4.77,0,0,0,1.86.55Zm0-3.68-2.15,2.16a5,5,0,0,0,.95.56,6.61,6.61,0,0,0,1.2.32v-3ZM14.34,21c.08.12.07-.14.05.13s0,0-.05.12V21Zm6.46.38H21c0-.29-.06-.11.13-.25l.27.3c-.23.42-.35.24-.95,1.11-.07.11,0,0-.08.11V20.4c.57.38.32.45.35.68s.06.11.09.27ZM14.34,21c.15-.54.59,0,.44-.63l.64.19a4.61,4.61,0,0,1-.07-.64h-1.2A3,3,0,0,0,14.34,21Zm13.31,5.64a3.07,3.07,0,0,1,.29-.34,10.66,10.66,0,0,0,2.49-6.38H28.79a7.85,7.85,0,0,1-.89,3.49c.2,0,.51.22.51.44,0,.44-.27.13-.62.34a6.1,6.1,0,0,0-.45.44c-.18.16-.17.08-.38.31l-.47.57,1.16,1.13Zm-.57-3.3c-.18-.08-.13-.06-.38-.06.07-.3,0-.1,0-.19-.35.18-.07,0-.2.31-.06.17-.13.24-.19.45-.12.44.18.6-.25.89a2.19,2.19,0,0,0-.21-.74c-.05-.14-.08-.23-.14-.37a1.27,1.27,0,0,1-.15-.35,6.49,6.49,0,0,0,1.14-3.36H28a8.89,8.89,0,0,1-.6,2.64,5.35,5.35,0,0,0-.35.78ZM9.53,19.89A18.91,18.91,0,0,0,9.84,22a10.55,10.55,0,0,0,2.27,4.38c.12.15.14.19.33.24a3.28,3.28,0,0,1,1.08-1.08,21.7,21.7,0,0,1-1.26-1.78,8.6,8.6,0,0,1-1.09-3.86Zm15.39,2.85a3.12,3.12,0,0,1,.32-.63,7.64,7.64,0,0,0,.63-2.22c-.19,0-.52,0-.7,0s-.24.07-.41.22-.14.15-.22.48c-.23,1-.47.73-.22,1.43a1.31,1.31,0,0,0,.6.72Zm-8-.69A4,4,0,0,1,16,19.89h3.1c-.54.47-1.91,2-2.21,2.16Zm-4.95-2.16h1.33a8,8,0,0,0,.57,2.35,2.27,2.27,0,0,0-.69.76c.53.14.62,1,1.77,1.08-.27.23-.63.65-.89.82a9.59,9.59,0,0,1-1.38-2.16,7.88,7.88,0,0,1-.45-1.32l-.26-1.53Zm9-.82s.29-.11.08,0-.09.1-.08,0ZM17.26,18a.81.81,0,0,0,.44.64c0-.39.06-.51.06-.83.77.52,0,.61.79,1.25l0,0,0,0,0,0H16a4.64,4.64,0,0,1,.82-2.21,1.32,1.32,0,0,1,.64.57c-.07.25-.19.2-.19.5Zm2.34,0c-.51-.37-.14-.65-.89-.25l-.52-.56a1.31,1.31,0,0,1,1.08.13l.3.05h0V18Zm4-1.58.75-.78a4.63,4.63,0,0,1,1,1.52,7.7,7.7,0,0,1,.49,2c-.27,0-.25,0-.37-.19l-.91-1a10.34,10.34,0,0,1-.71-1.12,2.14,2.14,0,0,0-.13-.19c-.08-.14-.06-.15-.1-.22Zm-8.3,2.72c-.17-.41.4-1.71.69-2.16.13-.21.26-.36.38-.55l-.88-.83c-.17.25-.36.46-.52.73a5.47,5.47,0,0,0-.42.79,5.32,5.32,0,0,0-.45,2Zm2.41-2.4-.39-.37c.27-.08.28-.25.58-.33a2.31,2.31,0,0,0-.19.7Zm3.11.95.06.38-.56.52a17.77,17.77,0,0,1,.05-3.12c.42,0,.8.22,1.14.25a6.28,6.28,0,0,0-.69,2Zm-7.61,1.45H11.93c.07-.26.05-.48.1-.79s.09-.52.14-.74a7.69,7.69,0,0,1,1.43-3c.15-.2.31-.36.42-.53L15,15a7.9,7.9,0,0,0-1.12,1.76,6.61,6.61,0,0,0-.58,2.4Zm11.85-4.24c.45.67,1.21,1.17,1.27,1.39a1.52,1.52,0,0,1-.51-.06,6.17,6.17,0,0,1,.83,2.91H28a8.48,8.48,0,0,0-.62-2.74c-.1-.23-.92-2-1.28-2-.87,0-.49.16-1,.51Zm-4.75-1.27v1.21c1,0,1.39.43,1.92.46s.52.25.88.5l.68-.71a5.49,5.49,0,0,0-3.48-1.46ZM16.94,15.9l-.84-.81a5.7,5.7,0,0,1,3.5-1.47v1.21a4.59,4.59,0,0,0-2.66,1.07Zm10.64-3.55h.13c.06.23.08.18.24.34l.49.64a10.31,10.31,0,0,1,2,5.8H28.79A8.16,8.16,0,0,0,27.58,15c.18,0,.64.2.76-.25-.11-.15-.25-.16-.44-.25a3.72,3.72,0,0,1-1.39-.89c.31-.47,1-.84,1.07-1.21ZM11.17,19.13a8.36,8.36,0,0,1,.75-3.25,10.38,10.38,0,0,1,1.55-2.4l-1.16-1.13a3.07,3.07,0,0,1-.29.34,10.82,10.82,0,0,0-1.61,2.58,10.68,10.68,0,0,0-.59,1.81,8,8,0,0,0-.19,1c0,.19-.1.81-.1,1Zm9.19-7.66a7.36,7.36,0,0,1,3.49.95l.94.57c.1,1.3.16.91-.12,1.33-.33-.22-.38-.46-.87-.59-.2-.06-.15,0-.28,0l-.23-.09a6.83,6.83,0,0,0-2.93-.88V11.47Zm-4.88,3c.28-.18.54-.42.84-.62a6.74,6.74,0,0,1,3.28-1.09V11.47a7.15,7.15,0,0,0-2.89.66,6.83,6.83,0,0,0-2.13,1.44l.9.87ZM20.36,9v1.64A9.63,9.63,0,0,1,24.73,12a2.55,2.55,0,0,1-.06-.76c.52,0,.66.9.93,1.36.12.21.21.23.35.43l1.19-1.22a4.09,4.09,0,0,1-.68-.52A10.45,10.45,0,0,0,20.36,9ZM14,13l-1.09-1.13a6.21,6.21,0,0,1,1.29-1.08A10.79,10.79,0,0,1,19.6,9v1.64a8.62,8.62,0,0,0-5.08,1.9c-.17.14-.39.33-.56.45Zm-5.32,6a11,11,0,0,0,1.08,5.39A11.3,11.3,0,0,0,20,30.85a11.51,11.51,0,0,0,2.5-.29,10.93,10.93,0,0,0,3.9-1.73A11.49,11.49,0,0,0,29.28,26a11.63,11.63,0,0,0,2-5.05c.07-.45.05-.88.1-1.37A11.79,11.79,0,0,0,30.43,15a10.4,10.4,0,0,0-1-1.79A8.29,8.29,0,0,0,28.52,12a10.61,10.61,0,0,0-1.84-1.7,11.17,11.17,0,0,0-6.32-2.17,10.53,10.53,0,0,0-3.16.33,11.79,11.79,0,0,0-2,.72,6.62,6.62,0,0,0-.88.45l-1.61,1.12A11.4,11.4,0,0,0,8.64,18.94Z"/><path class="cls-1" d="M21.12,10c.09.12.17.25.25.38h.38C21.75,9.94,21.62,9.75,21.12,10Z"/></g></g></svg>